<?xml version="1.0" standalone="no"?>
<!DOCTYPE svg PUBLIC "-//W3C//DTD SVG 20010904//EN"
 "http://www.w3.org/TR/2001/REC-SVG-20010904/DTD/svg10.dtd">
<svg version="1.0" xmlns="http://www.w3.org/2000/svg"
 width="300.000000pt" height="300.000000pt" viewBox="0 0 300.000000 300.000000"
 preserveAspectRatio="xMidYMid meet">
<metadata>
Created by potrace 1.11, written by Peter Selinger 2001-2013
</metadata>
<g transform="translate(0.000000,300.000000) scale(0.100000,-0.100000)"
fill="#000000" stroke="none">
<path d="M800 2250 l0 -550 -350 0 -350 0 0 -700 0 -700 -33 0 c-57 0 -86 -50
-49 -83 17 -16 134 -17 1484 -17 1406 0 1466 1 1481 18 10 10 17 25 17 34 0
24 -34 48 -68 48 l-32 0 0 450 0 450 -350 0 -350 0 0 450 0 450 -350 0 -350 0
0 350 0 350 -350 0 -350 0 0 -550z m600 -750 l0 -1200 -250 0 -250 0 0 1200 0
1200 250 0 250 0 0 -1200z m700 -350 l0 -850 -250 0 -250 0 0 850 0 850 250 0
250 0 0 -850z m-1400 -200 l0 -650 -250 0 -250 0 0 650 0 650 250 0 250 0 0
-650z"/>
</g>
</svg>
